<?xml version="1.0" encoding="utf-8"?>
<!-- Generator: Adobe Illustrator 26.1.0, SVG Export Plug-In . SVG Version: 6.00 Build 0)  -->
<svg version="1.1" id="Ebene_2" xmlns="http://www.w3.org/2000/svg" xmlns:xlink="http://www.w3.org/1999/xlink" x="0px" y="0px"
	 viewBox="0 0 2000 2000" style="enable-background:new 0 0 2000 2000;" xml:space="preserve">
<style type="text/css">
	.st0{fill:#010202;}
	.st1{fill:#010202;stroke:#010202;stroke-miterlimit:10;}
	.st2{fill:#FFFFFF;}
	.st3{fill:url(#SVGID_1_);}
	.st4{fill:#FFDA00;}
	.st5{font-family:'TwCenMT-CondensedExtraBold';}
	.st6{font-size:74.1768px;}
	.st7{fill:url(#SVGID_00000182496748493205837470000000706738506896223639_);}
</style>
<g>
	<path class="st0" d="M1507.4,1420.1c-2.2-1-4.8-0.9-6.9,0.3l-243.4,131.1l6.4,10.1l244.2-135.7
		C1510,1424.6,1509.8,1421.2,1507.4,1420.1z"/>
	<g>
		<path class="st0" d="M1154.6,1606.6l-99.5,53.6c-34.5,20.9-75.9,20.9-110.4,0l-91.9-51.1l-7.2,11.5l98.1,56.1
			c35.1,21.3,77.3,21.3,112.4,0l105.6-58.7L1154.6,1606.6z"/>
		<path class="st0" d="M751.3,1552.6l-236.4-131.4c-1.7-0.9-3.8-0.5-5,1.1c-1.7,2.3-1,5.7,1.5,7.1l233.4,133.5L751.3,1552.6z"/>
	</g>
</g>
<path class="st1" d="M652.2,1083.9c0,0-150.3-12.3-201.3-20.6c0,0-13.1,212-20.2,249.6c0,0,69.2-19.4,292.8-34.8
	S652.2,1083.9,652.2,1083.9z"/>
<path class="st1" d="M993.3,1093c0,0,428.8,0.2,498.5-18.1c0,0,75.7-13.4,75.7,53.8c0,67.2-8.5,59.3-28.6,70.3
	c0,0,13.1,14.2,35.2,52.2s36.4,61.7,36.4,61.7s-194.4-30.5-313.2-21.6S993.3,1093,993.3,1093z"/>
<path class="st2" d="M1426.5,658.1l-382.8-217.5c-27.1-15.4-60.3-15.4-87.4,0L573.5,658.1c-9.3,5.3-17.4,12.1-24.1,20v385.5
	c38.4,11.6,146.8,29.3,450.6,29.3c303.8,0,412.2-17.8,450.6-29.3V678.1C1443.9,670.2,1435.8,663.4,1426.5,658.1z"/>
<path class="st0" d="M1456,1366.6V944.7c0-25.9-14.1-49.8-36.7-62.4l-384.7-213.4c-21.5-11.9-47.7-11.9-69.2,0L580.7,882.3
	C558,894.8,544,918.7,544,944.7v421.9c0,25.9,14.1,49.8,36.7,62.4l384.7,199.4c21.5,11.9,47.7,11.9,69.2,0l384.7-199.4
	C1442,1416.4,1456,1392.6,1456,1366.6z"/>
<radialGradient id="SVGID_1_" cx="997.6265" cy="819.1548" r="457.8312" fx="988.6975" fy="1074.2146" gradientUnits="userSpaceOnUse">
	<stop  offset="0.4621" style="stop-color:#3C3C3B"/>
	<stop  offset="1" style="stop-color:#FCEA10"/>
</radialGradient>
<path class="st3" d="M1414.9,660.9l-372.4-211.6c-26.4-15-58.7-15-85.1,0L585.1,660.9c-9,5.1-16.9,11.8-23.4,19.5v375
	c37.3,11.3,142.8,28.5,438.3,28.5c295.6,0,401-17.3,438.3-28.5v-375C1431.8,672.7,1424,666,1414.9,660.9z"/>
<g>
	<g>
		<path class="st0" d="M721.1,503.6L721.1,503.6c-4.2-6.6-12.8-8.7-19.6-4.9L590.1,562c-30.1,17.1-48.6,49-48.6,83.5v405.4
			c0,3.7,2.1,7.2,5.4,8.9c0.1,0,0.2,0.1,0.2,0.1c6.6,3.4,14.5-1.4,14.5-8.9l0-387.4c0-31.8,17.5-61,45.5-75.9l108.7-62.7
			C723.4,520.6,725.7,510.9,721.1,503.6z M706.9,517.9c-3.2,0-5.8-2.6-5.8-5.8c0-3.2,2.6-5.8,5.8-5.8s5.8,2.6,5.8,5.8
			C712.7,515.3,710.1,517.9,706.9,517.9z"/>
		<path class="st0" d="M1409.9,562l-115.2-65.5c-4.6-2.6-10.5-1.2-13.3,3.3l-2.9,4.6c-4.3,6.8-2.1,15.9,4.9,19.9l109.6,63.3
			c28,15,45.5,44.2,45.5,75.9V1051c0,7.4,7.9,12.2,14.5,8.9c0.1,0,0.2-0.1,0.2-0.1c3.3-1.7,5.4-5.1,5.4-8.9V645.5
			C1458.5,611,1439.9,579.1,1409.9,562z M1291.4,517.4c-3.2,0-5.8-2.6-5.8-5.8c0-3.2,2.6-5.8,5.8-5.8s5.8,2.6,5.8,5.8
			C1297.2,514.8,1294.6,517.4,1291.4,517.4z"/>
		<path class="st0" d="M1168.7,425l-121.2-68.9c-29.4-16.7-65.5-16.7-94.9,0l-121.7,69.1c-7.1,4.1-9.4,13.3-5,20.2v0
			c4.2,6.5,12.7,8.6,19.4,4.8l114.1-65.9c25.4-13.6,55.8-13.6,81.2,0l117.9,68c4.6,2.7,10.5,1.2,13.4-3.3l2-3.2
			C1178.4,438.7,1176.1,429.2,1168.7,425z M839.3,443.1c-3.2,0-5.8-2.6-5.8-5.8s2.6-5.8,5.8-5.8s5.8,2.6,5.8,5.8
			S842.5,443.1,839.3,443.1z M1160.3,443.1c-3.2,0-5.8-2.6-5.8-5.8s2.6-5.8,5.8-5.8s5.8,2.6,5.8,5.8S1163.5,443.1,1160.3,443.1z"/>
	</g>
	<g>
		<path class="st4" d="M721.1,497.6L721.1,497.6c-4.2-6.6-12.8-8.7-19.6-4.9L590.1,556c-30.1,17.1-48.6,49-48.6,83.5v405.4
			c0,3.7,2.1,7.2,5.4,8.9c0.1,0,0.2,0.1,0.2,0.1c6.6,3.4,14.5-1.4,14.5-8.9l0-387.4c0-31.8,17.5-61,45.5-75.9l108.7-62.7
			C723.4,514.6,725.7,504.9,721.1,497.6z M706.9,511.9c-3.2,0-5.8-2.6-5.8-5.8c0-3.2,2.6-5.8,5.8-5.8s5.8,2.6,5.8,5.8
			C712.7,509.3,710.1,511.9,706.9,511.9z"/>
		<path class="st4" d="M1409.9,556l-115.2-65.5c-4.6-2.6-10.5-1.2-13.3,3.3l-2.9,4.6c-4.3,6.8-2.1,15.9,4.9,19.9l109.6,63.3
			c28,15,45.5,44.2,45.5,75.9V1045c0,7.4,7.9,12.2,14.5,8.9c0.1,0,0.2-0.1,0.2-0.1c3.3-1.7,5.4-5.1,5.4-8.9V639.5
			C1458.5,605,1439.9,573.1,1409.9,556z M1291.4,511.4c-3.2,0-5.8-2.6-5.8-5.8c0-3.2,2.6-5.8,5.8-5.8s5.8,2.6,5.8,5.8
			C1297.2,508.8,1294.6,511.4,1291.4,511.4z"/>
		<path class="st4" d="M1168.7,419l-121.2-68.9c-29.4-16.7-65.5-16.7-94.9,0l-121.7,69.1c-7.1,4.1-9.4,13.3-5,20.2v0
			c4.2,6.5,12.7,8.6,19.4,4.8l114.1-65.9c25.4-13.6,55.8-13.6,81.2,0l117.9,68c4.6,2.7,10.5,1.2,13.4-3.3l2-3.2
			C1178.4,432.7,1176.1,423.2,1168.7,419z M839.3,437.1c-3.2,0-5.8-2.6-5.8-5.8s2.6-5.8,5.8-5.8s5.8,2.6,5.8,5.8
			S842.5,437.1,839.3,437.1z M1160.3,437.1c-3.2,0-5.8-2.6-5.8-5.8s2.6-5.8,5.8-5.8s5.8,2.6,5.8,5.8S1163.5,437.1,1160.3,437.1z"/>
	</g>
</g>
<path class="st2" d="M794.3,1395.5l142.2,76.1c39.7,21.2,87.3,21.2,127,0l142.2-76.1H794.3z M1049.9,1465.1
	c-31.2,16.7-68.6,16.7-99.8,0l-111.8-59.8h323.5L1049.9,1465.1z"/>
<path class="st2" d="M1416.2,1298.7c-1,0-1.9,0.8-2,1.8c-2,29.2-18,55.5-42.8,69.5l-333,171.5c-24,13.5-52.8,13.5-76.8,0l-333-171.5
	c-24.6-13.8-40.6-39.9-42.8-68.9c-0.1-1.4-1.2-2.5-2.6-2.5h-3.6c-1,0-1.8,0.8-1.8,1.8l0,0c0,32.2,16.8,61.8,43.8,77l339.2,174.7
	c24.4,13.8,53.8,13.8,78.2,0l339.2-174.7c27-15.2,43.8-44.8,43.8-77l0,0c0-1-0.8-1.8-1.8-1.8H1416.2z"/>
<path class="st2" d="M1443.1,1340.1c-1.1,0-2,0.9-2.1,2c-2.1,31.1-19.2,59.1-45.6,74l-354.6,182.6c-25.5,14.4-56.2,14.4-81.7,0
	l-354.6-182.6c-26.2-14.7-43.2-42.5-45.5-73.3c-0.1-1.5-1.3-2.6-2.8-2.6h-3.8c-1.1,0-1.9,0.9-1.9,1.9l0,0
	c0,34.3,17.9,65.8,46.7,81.9l361.2,186c26,14.6,57.3,14.6,83.3,0l361.2-186c28.7-16.2,46.7-47.7,46.7-81.9l0,0
	c0-1.1-0.9-1.9-1.9-1.9H1443.1z"/>
<g>
	<g>
		<path class="st2" d="M582.5,1276.1c-12.1,1.2-24.3,2.4-36.4,3.7c-9.8-15.2-15.9-32.9-22.6-49.6c-1.7-4.3-3.3-8.2-4.8-11.6
			c-1.5-3.3-3.1-6.2-4.6-8.4c-1.6-2.3-3.2-4-4.8-5.1c-1.7-1.2-3.5-1.7-5.4-1.7c-3.4,0.1-5.1,0.1-8.5,0.2c0.2,27.2,0.3,54.5,0.5,81.7
			c-10.7,1.2-21.4,2.4-32.1,3.6c0-70.5,0-141,0-211.5c16.9,2.4,33.9,4.7,50.8,6.9c34.1,3.6,51.2,23.6,50.6,57.8
			c-0.1,7.3-1,14-2.6,19.6c-1.6,5.6-3.8,10.3-6.6,14c-2.8,3.8-6.2,6.4-10,8.7c-3.8,2.4-8.1,4.5-12.8,6.2c0,0.2,0,0.3,0,0.5
			c2.1,0.8,4.1,2,6.1,3.9c2,1.8,3.9,4.1,5.8,6.7c1.9,2.7,3.6,5.6,5.4,8.9c1.7,3.3,3.3,6.5,4.7,9.8
			C563.2,1239.1,570.8,1259,582.5,1276.1z M495.6,1114.4c-0.1,20.2-0.2,40.3-0.4,60.5c5.5,0.1,8.2,0.1,13.7,0.1
			c6.8,0.1,12.2-2.1,16.4-7.2c4.2-5.2,6.3-12.4,6.5-21.4c0.3-14.7-5.6-29.3-21.8-30.7C504.2,1115.2,501.3,1114.9,495.6,1114.4z"/>
		<path class="st2" d="M707.9,1192.3c0.9,41-12.4,75.9-56.8,79.8c-48,4.2-57.7-36.9-58.6-77.4c-1.4-33.6,0.7-67.7,1.5-101.4
			c10.5,1.1,21.1,2.1,31.7,3.1c-0.9,32.6-3.1,65.9-1.6,98.5c0.3,16.9,4.5,46.4,27.4,45c21.4-1.3,25.6-27,25.1-44.1
			c-1.4-31.5,0.7-63.4,1.6-94.9c10.4,0.8,20.9,1.6,31.3,2.3C708.7,1132.7,706.7,1162.7,707.9,1192.3z"/>
		<path class="st2" d="M819.4,1135.9c-16.3-0.5-32.7-1-49-1.6c-0.2,13.1-0.4,26.2-0.7,39.4c15.1,0,30.1,0,45.2,0
			c-0.2,10.2-0.1,13.8,0.1,24.8c-15.1,0.1-30.1,0.2-45.2,0.3c0.4,20.7,0.7,41.4,1.1,62.1c-10.4,0.6-20.8,1.3-31.2,2
			c-1.2-52.7-1.2-105.1,0-157.8c26.7,1.6,53.4,3,80.1,4.1C819.6,1118.6,819.5,1124.3,819.4,1135.9z"/>
		<path class="st2" d="M922.5,1138.1c-16.3-0.2-32.7-0.5-49-0.9c-0.1,12.2-0.2,24.3-0.3,36.5c15.1,0,30.1-0.1,45.2-0.1
			c0,10.1,0,14.3,0,24.7c-15.1,0-30.1,0-45.2,0c0.2,19.1,0.3,38.3,0.5,57.4c-10.4,0.4-20.8,0.8-31.2,1.3c-0.6-49-0.6-97.9,0-146.9
			c26.7,0.9,53.4,1.6,80.1,2.2C922.6,1122,922.6,1127.3,922.5,1138.1z"/>
		<path class="st2" d="M939.1,1248.6c0-10.7-0.1-21.3-0.1-32c5.6,4.9,11.8,8.5,18.4,10.9c6.6,2.4,13.3,3.5,20,3.4
			c3.9,0,7.4-0.4,10.3-1.2c2.9-0.7,5.4-1.8,7.4-3.1c2-1.3,3.5-2.8,4.4-4.5c1-1.7,1.5-3.6,1.5-5.6c0-2.7-0.8-5.2-2.3-7.4
			c-1.6-2.2-3.7-4.2-6.4-6c-2.7-1.8-5.9-3.6-9.6-5.3c-3.7-1.7-7.7-3.4-12-5.2c-8.5-3.2-18.5-9.1-24.4-16.2c-5.3-6.4-8-14.4-8-24.1
			c0-7.6,1.5-14.1,4.4-19.4c2.9-5.3,6.9-9.6,11.9-12.8c5-3.3,10.8-5.6,17.4-7.1c6.6-1.5,13.6-2.2,21-2.2c7.3,0,13.7,0.5,19.3,1.4
			c5.6,0.9,10.8,2.2,15.5,4c0,9.7,0,19.4,0,29.1c-2.3-1.6-4.9-3.1-7.6-4.3c-2.8-1.2-5.6-2.2-8.5-3.1c-2.9-0.8-5.8-1.4-8.7-1.8
			c-2.9-0.4-5.6-0.6-8.2-0.6c-3.6,0-6.8,0.3-9.7,1c-2.9,0.7-5.4,1.6-7.4,2.9c-2,1.2-3.6,2.7-4.7,4.5c-1.1,1.7-1.7,3.7-1.7,5.9
			c0,2.4,0.6,4.5,1.8,6.4c1.2,1.9,3,3.7,5.2,5.3c2.3,1.7,5,3.3,8.3,4.9c3.2,1.6,6.9,3.2,11,4.9c5.6,2.3,10.6,4.7,15,7.4
			c4.4,2.6,8.3,5.6,11.4,8.9c3.2,3.3,5.6,7,7.3,11.3c1.7,4.2,2.5,9.2,2.5,14.9c0,7.9-1.5,14.5-4.4,19.7c-3,5.3-7,9.5-12,12.8
			c-5.1,3.2-10.9,5.7-17.7,7.1c-6.7,1.5-13.8,2.2-21.2,2.3c-7.6,0.1-14.9-0.5-21.8-1.6C950.1,1252.7,944.1,1251,939.1,1248.6z"/>
		<path class="st2" d="M1115.9,1256.8c-17.6-0.7-36.6-7-48.8-20.4c-12.4-13.6-18.9-33.3-18.9-51.5c0-18.9,6.4-39.6,19.2-54
			c12.5-14.1,32.4-20.4,50.7-20.9c17.4-0.5,36.2,5.1,48.3,18.1c13,14,18.6,35.6,18.6,54.2c0,19.3-5.9,41.7-19.3,56.2
			C1153.3,1251.8,1133.9,1257.4,1115.9,1256.8z M1117.3,1137c-8.8,0.2-21,5.7-26.2,13.3c-6.6,9.4-9.7,21.4-9.7,33
			c0,11.6,3,23.7,9.7,33.1c5.2,7.3,16.9,12.9,25.5,13.1c8.6,0.2,20.6-4.7,25.8-12.1c6.6-9.5,9.6-21.8,9.6-33.5
			c0-11.9-2.9-24.4-9.3-34.2C1137.7,1142.1,1125.9,1136.8,1117.3,1137z"/>
		<path class="st2" d="M1290.9,1263.4c-27.6-1.9-55.3-3.6-82.9-5.1c0.2-49.6,0.2-99.2,0-148.9c10.5-0.4,20.9-0.9,31.4-1.4
			c0.2,41.5,0.3,82.9,0.1,124.4c17.2,0.7,34.4,1.4,51.6,2.2C1291,1244.2,1290.9,1253.8,1290.9,1263.4z"/>
		<path class="st2" d="M1432.3,1275c-11.4-1.1-22.9-2.1-34.3-3.1c-3.9-13.2-6.7-26.6-9.7-40c-16.5-0.8-33.1-1.6-49.6-2.3
			c-3.1,12.3-6,24.6-10.1,36.5c-11.3-0.9-22.7-1.7-34-2.5c19.4-53.2,32.6-108.5,50.7-162.1c12.4-0.9,24.8-1.9,37.3-3
			C1404.5,1155.5,1414.9,1216.8,1432.3,1275z M1381.4,1198.9c-4.9-17.9-10.6-35.4-15.1-53.4c-1.1-4.6-1.9-10.3-2.4-16.6
			c-0.3,0-0.5,0-0.8,0c-0.3,5.4-1.1,10.9-2.3,16.2c-4.3,18.1-9.7,35.5-15,53.3C1357.6,1198.6,1369.5,1198.7,1381.4,1198.9z"/>
		<path class="st2" d="M1567.4,1288.8c-12.1-1.3-24.2-2.6-36.3-3.9c-9-17.3-15-36.2-21.6-54.5c-1.6-4.5-3.2-8.5-4.6-12
			c-1.5-3.4-3-6.3-4.5-8.6c-1.5-2.3-3.1-4.1-4.8-5.3c-1.7-1.2-3.5-1.8-5.4-1.8c-3.4-0.1-5.1-0.1-8.5-0.1
			c-0.1,25.7-0.2,51.5-0.3,77.2c-10.5-1.1-21-2.1-31.5-3.1c0.4-61.5,0.4-123.1,0-184.6c16.7-1.8,33.3-3.7,50-5.7
			c38.1-5.6,50.5,16.6,51.1,51c0.2,8.1-0.7,15.7-2.2,22.1c-1.5,6.3-3.6,11.5-6.3,15.6c-2.7,4.1-6,6.9-9.9,9.3
			c-3.9,2.5-8.2,4.7-12.9,6.3c0,0.2,0,0.3,0,0.5c2.1,0.8,4.1,2.1,6,4.1c1.9,1.9,3.8,4.3,5.6,7.2c1.8,2.9,3.5,6.1,5.2,9.7
			c1.7,3.6,3.2,7.2,4.5,10.8C1549.1,1244.9,1556.3,1268,1567.4,1288.8z M1481.5,1119.1c0.1,18.8,0.2,37.5,0.3,56.3
			c5.5,0,8.2-0.1,13.6-0.1c6.8-0.1,12.2-2.2,16.2-7.6c4.1-5.4,6.1-12.9,6.2-22.1c0.2-14.2-5.5-29.2-22-27.7
			C1490,1118.4,1487.2,1118.6,1481.5,1119.1z"/>
	</g>
</g>
<g>
	<path class="st2" d="M1507.4,1412.1c-2.2-1-4.8-0.9-6.9,0.3l-243.4,131.1l6.4,10.1l244.2-135.7
		C1510,1416.6,1509.8,1413.2,1507.4,1412.1z"/>
	<g>
		<path class="st2" d="M1154.6,1598.6l-99.5,53.6c-34.5,20.9-75.9,20.9-110.4,0l-91.9-51.1l-7.2,11.5l98.1,56.1
			c35.1,21.3,77.3,21.3,112.4,0l105.6-58.7L1154.6,1598.6z"/>
		<path class="st2" d="M751.3,1544.6l-236.4-131.4c-1.7-0.9-3.8-0.5-5,1.1c-1.7,2.3-1,5.7,1.5,7.1l233.4,133.5L751.3,1544.6z"/>
	</g>
</g>
<path d="M1367.8,610.8"/>
<text transform="matrix(1 0 0 1 712.8394 1356.2871)" class="st2 st5 st6">Wir machen‘s Ihnen!</text>
<g>
	<rect x="480.5" y="704.9" class="st0" width="11.5" height="290"/>
	<rect x="484.5" y="704.9" class="st2" width="11.5" height="290"/>
	<g>
		<path class="st0" d="M490.3,673.5c-10.1,0-18.4,8.2-18.4,18.4c0,10.1,8.2,18.4,18.4,18.4s18.4-8.2,18.4-18.4
			C508.6,681.7,500.4,673.5,490.3,673.5z M490.3,699.4c-4.2,0-7.5-3.4-7.5-7.5s3.4-7.5,7.5-7.5s7.5,3.4,7.5,7.5
			S494.4,699.4,490.3,699.4z"/>
		<path class="st4" d="M490.3,669.5c-10.1,0-18.4,8.2-18.4,18.4c0,10.1,8.2,18.4,18.4,18.4s18.4-8.2,18.4-18.4
			C508.6,677.7,500.4,669.5,490.3,669.5z M490.3,695.4c-4.2,0-7.5-3.4-7.5-7.5s3.4-7.5,7.5-7.5s7.5,3.4,7.5,7.5
			S494.4,695.4,490.3,695.4z"/>
	</g>
	<g>
		<path class="st0" d="M490.3,983.6c-10.1,0-18.4,8.2-18.4,18.4s8.2,18.4,18.4,18.4s18.4-8.2,18.4-18.4S500.4,983.6,490.3,983.6z
			 M490.3,1009.5c-4.2,0-7.5-3.4-7.5-7.5c0-4.2,3.4-7.5,7.5-7.5s7.5,3.4,7.5,7.5C497.8,1006.2,494.4,1009.5,490.3,1009.5z"/>
		<path class="st4" d="M490.3,979.6c-10.1,0-18.4,8.2-18.4,18.4s8.2,18.4,18.4,18.4s18.4-8.2,18.4-18.4S500.4,979.6,490.3,979.6z
			 M490.3,1005.5c-4.2,0-7.5-3.4-7.5-7.5c0-4.2,3.4-7.5,7.5-7.5s7.5,3.4,7.5,7.5C497.8,1002.2,494.4,1005.5,490.3,1005.5z"/>
	</g>
</g>
<g>
	<rect x="1505.3" y="704.9" class="st0" width="11.5" height="290"/>
	<rect x="1502.3" y="704.9" class="st2" width="11.5" height="290"/>
	<g>
		<path class="st0" d="M1508,673.5c-10.1,0-18.4,8.2-18.4,18.4c0,10.1,8.2,18.4,18.4,18.4c10.1,0,18.4-8.2,18.4-18.4
			C1526.4,681.7,1518.2,673.5,1508,673.5z M1508,699.4c-4.2,0-7.5-3.4-7.5-7.5s3.4-7.5,7.5-7.5c4.2,0,7.5,3.4,7.5,7.5
			S1512.2,699.4,1508,699.4z"/>
		<path class="st4" d="M1508,669.5c-10.1,0-18.4,8.2-18.4,18.4c0,10.1,8.2,18.4,18.4,18.4c10.1,0,18.4-8.2,18.4-18.4
			C1526.4,677.7,1518.2,669.5,1508,669.5z M1508,695.4c-4.2,0-7.5-3.4-7.5-7.5s3.4-7.5,7.5-7.5c4.2,0,7.5,3.4,7.5,7.5
			S1512.2,695.4,1508,695.4z"/>
	</g>
	<g>
		<path class="st0" d="M1508,983.6c-10.1,0-18.4,8.2-18.4,18.4s8.2,18.4,18.4,18.4c10.1,0,18.4-8.2,18.4-18.4
			S1518.2,983.6,1508,983.6z M1508,1009.5c-4.2,0-7.5-3.4-7.5-7.5c0-4.2,3.4-7.5,7.5-7.5c4.2,0,7.5,3.4,7.5,7.5
			C1515.6,1006.2,1512.2,1009.5,1508,1009.5z"/>
		<path class="st4" d="M1508,979.6c-10.1,0-18.4,8.2-18.4,18.4s8.2,18.4,18.4,18.4c10.1,0,18.4-8.2,18.4-18.4
			S1518.2,979.6,1508,979.6z M1508,1005.5c-4.2,0-7.5-3.4-7.5-7.5c0-4.2,3.4-7.5,7.5-7.5c4.2,0,7.5,3.4,7.5,7.5
			C1515.6,1002.2,1512.2,1005.5,1508,1005.5z"/>
	</g>
</g>
<g>
	<path class="st0" d="M752.8,1538.5c-10.1,0-18.4,8.2-18.4,18.4s8.2,18.4,18.4,18.4s18.4-8.2,18.4-18.4S762.9,1538.5,752.8,1538.5z
		 M752.8,1564.4c-4.2,0-7.5-3.4-7.5-7.5s3.4-7.5,7.5-7.5c4.2,0,7.5,3.4,7.5,7.5S756.9,1564.4,752.8,1564.4z"/>
	<path class="st4" d="M752.8,1534.5c-10.1,0-18.4,8.2-18.4,18.4s8.2,18.4,18.4,18.4s18.4-8.2,18.4-18.4S762.9,1534.5,752.8,1534.5z
		 M752.8,1560.4c-4.2,0-7.5-3.4-7.5-7.5s3.4-7.5,7.5-7.5c4.2,0,7.5,3.4,7.5,7.5S756.9,1560.4,752.8,1560.4z"/>
</g>
<g>
	<path class="st0" d="M1251.2,1538.5c-10.1,0-18.4,8.2-18.4,18.4s8.2,18.4,18.4,18.4s18.4-8.2,18.4-18.4
		S1261.4,1538.5,1251.2,1538.5z M1251.2,1564.4c-4.2,0-7.5-3.4-7.5-7.5s3.4-7.5,7.5-7.5s7.5,3.4,7.5,7.5
		S1255.4,1564.4,1251.2,1564.4z"/>
	<path class="st4" d="M1251.2,1534.5c-10.1,0-18.4,8.2-18.4,18.4s8.2,18.4,18.4,18.4s18.4-8.2,18.4-18.4
		S1261.4,1534.5,1251.2,1534.5z M1251.2,1560.4c-4.2,0-7.5-3.4-7.5-7.5s3.4-7.5,7.5-7.5s7.5,3.4,7.5,7.5
		S1255.4,1560.4,1251.2,1560.4z"/>
</g>
<g>
	<path class="st0" d="M1167.6,1582.3c-10.1,0-18.4,8.2-18.4,18.4s8.2,18.4,18.4,18.4s18.4-8.2,18.4-18.4
		S1177.8,1582.3,1167.6,1582.3z M1167.6,1608.2c-4.2,0-7.5-3.4-7.5-7.5s3.4-7.5,7.5-7.5s7.5,3.4,7.5,7.5
		S1171.8,1608.2,1167.6,1608.2z"/>
	<path class="st4" d="M1167.6,1578.3c-10.1,0-18.4,8.2-18.4,18.4s8.2,18.4,18.4,18.4s18.4-8.2,18.4-18.4
		S1177.8,1578.3,1167.6,1578.3z M1167.6,1604.2c-4.2,0-7.5-3.4-7.5-7.5s3.4-7.5,7.5-7.5s7.5,3.4,7.5,7.5
		S1171.8,1604.2,1167.6,1604.2z"/>
</g>
<g>
	<path class="st0" d="M838.3,1584.3c-10.1,0-18.4,8.2-18.4,18.4s8.2,18.4,18.4,18.4s18.4-8.2,18.4-18.4S848.4,1584.3,838.3,1584.3z
		 M838.3,1610.2c-4.2,0-7.5-3.4-7.5-7.5s3.4-7.5,7.5-7.5s7.5,3.4,7.5,7.5S842.4,1610.2,838.3,1610.2z"/>
	<path class="st4" d="M838.3,1580.3c-10.1,0-18.4,8.2-18.4,18.4s8.2,18.4,18.4,18.4s18.4-8.2,18.4-18.4S848.4,1580.3,838.3,1580.3z
		 M838.3,1606.2c-4.2,0-7.5-3.4-7.5-7.5s3.4-7.5,7.5-7.5s7.5,3.4,7.5,7.5S842.4,1606.2,838.3,1606.2z"/>
</g>
<linearGradient id="SVGID_00000170279583090000845130000013686537449964945827_" gradientUnits="userSpaceOnUse" x1="999.3957" y1="1059.4241" x2="999.3957" y2="877.5687">
	<stop  offset="0" style="stop-color:#010202"/>
	<stop  offset="1" style="stop-color:#000000;stop-opacity:0"/>
</linearGradient>
<rect x="560.5" y="871.5" style="fill:url(#SVGID_00000170279583090000845130000013686537449964945827_);" width="877.8" height="218.3"/>
<g>
	<path class="st4" d="M1438.3,1016.5l-6.5,2c-49.7,19.8-131.5,14.2-179.3,14.2c-47.8,0-55.4-14.2-55.4-14.2
		c-31.2-45.9,59.3-41.9,59.3-41.9c-127.7-36.4,11.7-76.7,11.7-76.7c-138.1-5.5-25.2-68-25.2-68c-136.5,12.7-42.3-70.9-42.3-70.9
		c-139.9,51.8-93.1-72.4-93.1-72.4c-85.3,130.8-109.8-17.1-109.8-17.1s-23.5,147.2-105.3,17.1c0,0,46.8,124.1-93.1,72.4
		c0,0,94.2,83.5-42.3,70.9c0,0,112.9,62.5-25.2,68c0,0,139.4,40.4,11.7,76.7c0,0,90.5-4,59.3,41.9c0,0-7.6,14.2-55.4,14.2
		s-129.7,5.5-179.3-14.2l-6.5-2v7.6c9.8,5.4,43,18,137.9,17.4c57.9-0.4,128.6-0.4,186.5-0.3c-29.5-29.3-47.7-69.9-47.7-114.7
		c0-89.3,72.4-161.7,161.7-161.7s161.7,72.4,161.7,161.7c0,44.8-18.3,85.4-47.7,114.7c57.9-0.1,128.6-0.1,186.5,0.3
		c94.9,0.6,128-12,137.9-17.4V1016.5z"/>
	<g>
		<path class="st4" d="M1024.7,699.4c0,0-12.8-192.8,12.7-252.8c-4.1-2-8.3-3.6-12.6-4.9c-3.5,12-6.4,30.6-7.3,59.4
			C1015.2,578.7,1012.6,669.8,1024.7,699.4z"/>
		<g>
			<path class="st4" d="M1062.4,649.4c0,0,9.9-103.6,38-167.2l-4.9-2.8C1086.8,496.9,1065.5,549.3,1062.4,649.4z"/>
			<path class="st4" d="M1092.3,477.6l-6-3.4c-11.1,18.8-26.1,58.1-30.8,137.2C1055.5,611.4,1071.7,502.5,1092.3,477.6z"/>
		</g>
		<g>
			<path class="st4" d="M1156.3,517c-23.7,21.1-45.9,111.3-45.9,111.3c24.8-77,35.9-89.1,49.1-103.4c2.1-2.3,3.8-4.4,5-6.3l-6.1-3.5
				C1157.7,515.7,1157,516.3,1156.3,517z"/>
			<path class="st4" d="M1098.8,644.6c19.2-82.6,43.4-119.4,55.8-131.7l-5-2.8C1111.5,536.9,1098.3,646.5,1098.8,644.6z"/>
		</g>
		<path class="st4" d="M1128.2,702.6c0,0,26.7-124.2,89.3-148.7c-9.6,6.1-36.7,26.8-48.7,71.7l4.2-8.3c0,0,26.4-53.9,55.3-62.3
			l-14.9-8.5C1195.8,555.3,1152.6,585,1128.2,702.6z"/>
		<path class="st4" d="M1227.4,627.3c-27.1,22.1-39.8,36.7-49.8,54.5c-8.9,15.9-19.4,45.6-20.5,48.8c1.5-3.5,13.7-29.9,21.5-41.9
			c23.3-35.7,67.1-89.3,149-77.4l-15.3-8.7C1288.2,601.1,1255.4,604.4,1227.4,627.3z"/>
		<path class="st4" d="M1157,730.8c0,0,0-0.1,0.1-0.3C1157,730.9,1156.9,731,1157,730.8z"/>
		<path class="st4" d="M1266.5,659.9c-49.5,27.7-82.1,90.1-81.2,88.6c63.8-105.7,153.3-110.4,201.6-103.6l-14.4-8.2
			C1334.5,635.7,1295.6,643.6,1266.5,659.9z"/>
		<path class="st4" d="M1214.3,781.7c22.2-34.8,40-64.4,110.8-94.7c38.1-16.3,78-16.7,106.8-13.6c-3.1-2.9-6.4-5.7-9.9-8.1
			C1247.4,663.8,1212,785.3,1214.3,781.7z"/>
		<g>
			<path class="st4" d="M1273.2,1022.8c83.7,1.5,136.2-6,165.1-12.3v-2.1C1399.3,1020.3,1271.2,1022.8,1273.2,1022.8z"/>
			<path class="st4" d="M1438.3,999.8v-9.2c-78.1,28-169.4,28-169.4,28C1372.2,1020.1,1419.7,1007.2,1438.3,999.8z"/>
		</g>
		<g>
			<path class="st4" d="M1289.7,966.4c61,2,114.8-9.3,148.7-23.6v-7.9C1366.5,968.9,1287.3,966.3,1289.7,966.4z"/>
			<path class="st4" d="M1247.6,961.1c87.1,6.1,165.4-27.3,190.7-39.5v-8.5C1364,963.8,1247.6,961.1,1247.6,961.1z"/>
		</g>
		<path class="st4" d="M1414.7,703.7c-117.4,23.2-160.4,89.7-160.4,89.7c62.2-67.7,150.8-83.7,184-87.4v-10.8
			c-97.4,7.3-128.3,37-128.3,37C1377,699.4,1414.7,703.7,1414.7,703.7z"/>
		<g>
			<path class="st4" d="M1395.8,765.9c-44.4,11.1-78.6,34.3-115.7,50.1c-25.3,10.8-49.3,20.8-62,26.1c21.6-7.6,75.7-25,111.4-44.1
				c34.5-18.5,76.8-29.7,108.8-33.9V758C1429.4,758.9,1415.8,760.9,1395.8,765.9z"/>
			<path class="st4" d="M1282,802.2c0,0,75.6-43.9,156.3-52.4v-6.7c-18.4,1.9-41.9,7.3-75.2,17.9
				C1307.6,778.6,1282,802.2,1282,802.2z"/>
		</g>
		<path class="st4" d="M1208.7,846.1c0,0,3.5-1.4,9.4-3.9C1212.2,844.3,1208.7,845.6,1208.7,846.1z"/>
		<g>
			<path class="st4" d="M1361,840.8c-40.7,20-128.5,30.1-128.5,30.1s57.2,5.8,145.5-29.2c26.7-10.6,46.3-15.7,60.4-18v-6.3
				C1419.6,818.8,1397.7,822.7,1361,840.8z"/>
			<path class="st4" d="M1300,851.9c2.3-1.1,32-6.9,60.9-22.2c21.8-11.5,58.7-22.2,77.3-23.1v-4.2c-12.2,0.7-27.8,3.1-44.3,9.4
				C1356.7,826.1,1300,851.9,1300,851.9z"/>
		</g>
		<g>
			<path class="st4" d="M1259.5,919.4c0,0,45-3.7,73.1-10c18.4-4.1,71.3-17.7,105.7-30.6v-7.3C1368,904.3,1259.5,919.4,1259.5,919.4
				z"/>
			<path class="st4" d="M1268.9,906.9c77.3-7.7,141-34,169.4-45.2v-5.2c-18.4,8.7-41.2,14.3-70.5,24.4
				C1326.8,895.2,1265.9,907.2,1268.9,906.9z"/>
		</g>
		<path class="st4" d="M977.5,699.4c12.1-29.6,9.5-120.7,7.2-198.3c-0.9-29.2-3.9-48-7.5-60c-4.3,1.2-8.6,2.7-12.8,4.6
			C990.4,504.8,977.5,699.4,977.5,699.4z"/>
		<g>
			<path class="st4" d="M946.7,611.4c-4.8-80.5-20.2-119.8-31.4-138.1l-6.1,3.5C930.1,499.9,946.7,611.4,946.7,611.4z"/>
			<path class="st4" d="M906.2,478.5l-4.8,2.7c28.5,63.5,38.5,168.2,38.5,168.2C936.7,547.4,914.6,494.9,906.2,478.5z"/>
		</g>
		<g>
			<path class="st4" d="M903.5,644.6c0.4,1.9-12.9-109.7-51.8-135.2l-4.8,2.7C859,523.6,883.9,560.1,903.5,644.6z"/>
			<path class="st4" d="M891.9,628.3c0,0-22.2-90.2-45.9-111.3c-1.1-1-2-1.9-2.8-2.7l-5.9,3.3c1.2,2.1,3,4.6,5.5,7.3
				C856,539.1,867.1,551.2,891.9,628.3z"/>
		</g>
		<path class="st4" d="M829.1,617.2l4.2,8.3c-12-44.9-39-65.5-48.7-71.7c62.6,24.5,89.3,148.7,89.3,148.7
			c-24.9-120.4-69.6-148.7-86.4-156.8l-15.3,8.7C801.8,561.5,829.1,617.2,829.1,617.2z"/>
		<path class="st4" d="M823.5,688.7c7.8,12,20,38.4,21.5,41.9c-1.1-3.2-11.5-32.8-20.5-48.8c-10-17.8-22.7-32.4-49.8-54.5
			c-29-23.7-63.1-26.4-87.5-24.5l-15.8,9C755.4,598,800,652.5,823.5,688.7z"/>
		<path class="st4" d="M845.2,730.8c0.1,0.2,0.1,0.1-0.1-0.3C845.1,730.7,845.2,730.8,845.2,730.8z"/>
		<path class="st4" d="M817,748.5c0.9,1.4-31.8-61-81.2-88.6c-29.7-16.6-69.7-24.5-108.3-23.1l-15,8.5
			C659.9,637.9,751.8,640.6,817,748.5z"/>
		<path class="st4" d="M677.2,687.1c70.7,30.3,88.6,59.9,110.8,94.7c2.3,3.6-33.4-119-209.9-116.4c-3.6,2.5-7,5.4-10.1,8.4
			C596.8,670.3,638,670.3,677.2,687.1z"/>
		<g>
			<path class="st4" d="M729,1022.8c2.1,0-131.2-2.6-167.3-15.2v2.3C590.1,1016.5,643.1,1024.4,729,1022.8z"/>
			<path class="st4" d="M733.3,1018.6c0,0-93.1,0-171.6-28.8v9.1C578.6,1006.1,625.6,1020.2,733.3,1018.6z"/>
		</g>
		<g>
			<path class="st4" d="M754.6,961.1c0,0-118.8,2.7-192.9-49.5v9C584.4,931.7,664.8,967.3,754.6,961.1z"/>
			<path class="st4" d="M712.6,966.4c2.4-0.1-78.5,2.6-150.9-32.6v8C595.3,956.5,650.2,968.4,712.6,966.4z"/>
		</g>
		<path class="st4" d="M747.9,793.4c0,0-43.1-66.5-160.4-89.7c0,0,37.7-4.3,104.7,28.5c0,0-31.4-30.1-130.5-37.1v10.7
			C593.1,708.9,684.2,724,747.9,793.4z"/>
		<g>
			<path class="st4" d="M720.2,802.2c0,0-25.6-23.6-81-41.2c-34.7-11-58.7-16.4-77.5-18.1v6.7C643.2,757.5,720.2,802.2,720.2,802.2z
				"/>
			<path class="st4" d="M784.1,842.2c-12.7-5.3-36.6-15.4-62-26.1c-37.2-15.8-71.3-39-115.7-50.1c-21.7-5.4-35.8-7.4-44.7-8.1v6.1
				c32.2,4,75.7,15.2,111,34.2C708.4,817.2,762.5,834.6,784.1,842.2z"/>
		</g>
		<path class="st4" d="M784.1,842.2c5.9,2.5,9.4,3.9,9.4,3.9C793.5,845.6,790,844.3,784.1,842.2z"/>
		<g>
			<path class="st4" d="M769.8,870.9c0,0-87.9-10-128.5-30.1c-38.2-18.8-60.4-22.3-79.6-23.5v6.1c14.2,2.1,34.5,7.2,62.6,18.3
				C712.6,876.7,769.8,870.9,769.8,870.9z"/>
			<path class="st4" d="M641.2,829.7c28.9,15.3,58.6,21.1,60.9,22.2c0,0-56.7-25.8-94-40.1c-17.5-6.7-34-9-46.5-9.5v4.3
				C579.4,806.7,618.5,817.7,641.2,829.7z"/>
		</g>
		<g>
			<path class="st4" d="M742.7,919.4c0,0-110.8-15.5-181-49v7.6c34.3,13.1,89.2,27.2,107.9,31.4
				C697.7,915.7,742.7,919.4,742.7,919.4z"/>
			<path class="st4" d="M733.3,906.9c2.9,0.3-57.9-11.8-99-26c-30.4-10.6-53.9-16.2-72.7-25.5v5.4
				C588.9,871.5,653.9,899,733.3,906.9z"/>
		</g>
	</g>
	<path class="st4" d="M906.8,1041.2h54.5c-41.9-15.7-71.7-56-71.7-103.4c0-61,49.4-110.4,110.4-110.4c61,0,110.4,49.4,110.4,110.4
		c0,47.4-29.8,87.7-71.7,103.4h54.5c33.2-27.1,54.4-68.3,54.4-114.4c0-81.5-66.1-147.5-147.5-147.5s-147.5,66.1-147.5,147.5
		C852.5,973,873.6,1014.2,906.8,1041.2z"/>
</g>
</svg>
